<svg width="20" height="20" viewBox="0 0 20 20" fill="none" xmlns="http://www.w3.org/2000/svg">
<path fill-rule="evenodd" clip-rule="evenodd" d="M10 0.352295C10.5548 0.352295 11.0045 0.802009 11.0045 1.35676V8.72283H18.3705C18.9253 8.72283 19.375 9.17254 19.375 9.72729C19.375 10.282 18.9253 10.7318 18.3705 10.7318H11.0045V18.0978C11.0045 18.6526 10.5548 19.1023 10 19.1023C9.44525 19.1023 8.99554 18.6526 8.99554 18.0978V10.7318H1.62946C1.07471 10.7318 0.625 10.282 0.625 9.72729C0.625 9.17254 1.07471 8.72283 1.62946 8.72283H8.99554V1.35676C8.99554 0.802009 9.44525 0.352295 10 0.352295Z" fill="#072692"/>
</svg>
