<svg width="36" height="36" viewBox="0 0 36 36" fill="none" xmlns="http://www.w3.org/2000/svg">
<path d="M0 18C0 8.05887 8.05887 0 18 0V0C27.9411 0 36 8.05887 36 18V18C36 27.9411 27.9411 36 18 36V36C8.05887 36 0 27.9411 0 18V18Z" fill="#F5B300"/>
<path d="M11.6758 8.27614C12.3368 8.45643 12.9978 8.57661 13.6589 8.7569C14.3199 8.93718 14.9809 9.05736 15.642 9.23765C15.8223 9.29774 15.8823 9.23765 15.9424 9.05736C16.1828 8.03577 16.4232 7.07427 16.6636 6.05267C16.7237 5.87239 16.7838 5.81229 16.964 5.87239C17.565 6.05267 18.1058 6.17286 18.7068 6.29305C18.887 6.35314 18.887 6.41323 18.8269 6.53342C18.5866 7.49492 18.3462 8.51652 18.1058 9.47802C18.1058 9.53812 18.1058 9.59821 18.0457 9.7184C18.5265 9.83859 19.0673 9.95877 19.5481 10.079C19.6082 10.079 19.6683 9.95877 19.7284 9.89868C19.9086 9.11746 20.0889 8.39633 20.3293 7.61511C20.3894 7.37474 20.4495 7.13436 20.5096 6.89398C20.5096 6.7738 20.5697 6.7137 20.6899 6.7738C21.2908 6.95408 21.8917 7.07427 22.5528 7.25455C22.6129 7.25455 22.6129 7.31464 22.673 7.31464C22.4927 8.09586 22.3124 8.81699 22.1321 9.53812C22.072 9.83859 22.0119 10.1391 21.8917 10.4395C21.8316 10.6198 21.8917 10.6799 22.072 10.74C22.733 11.0405 23.3941 11.3409 24.0551 11.6414C24.6561 12.002 25.1969 12.4827 25.6176 13.0837C26.1584 13.9851 26.2185 14.9466 25.9781 15.9081C25.7978 16.5691 25.5575 17.17 25.0767 17.6508C24.7161 18.0114 24.2354 18.2517 23.7546 18.432C23.6946 18.432 23.6345 18.4921 23.5143 18.4921C23.7546 18.6724 23.995 18.7926 24.2354 18.9729C24.9565 19.5137 25.4373 20.1747 25.6777 21.016C25.7978 21.6771 25.7377 22.3982 25.5575 23.0592C25.3171 23.9006 25.0166 24.6217 24.4758 25.2827C23.8147 26.0639 22.9734 26.4846 22.0119 26.6048C20.75 26.7851 19.5481 26.6649 18.3462 26.4846C18.1659 26.4245 18.0457 26.4846 17.9856 26.6649C17.7453 27.6264 17.5049 28.648 17.2645 29.6095C17.2044 29.8499 17.2044 29.9099 16.9039 29.7898C16.3631 29.6696 15.7622 29.4893 15.2213 29.3691C15.041 29.309 15.041 29.2489 15.1011 29.1287C15.3415 28.1071 15.5819 27.0855 15.8823 26.124C15.8823 26.0038 15.9424 25.9438 15.8223 25.8837C15.3415 25.7635 14.8607 25.6433 14.3199 25.5231C14.1997 26.0639 14.0194 26.6048 13.8992 27.1456C13.7791 27.6865 13.5988 28.2273 13.4786 28.7682C13.4185 28.8884 13.4185 28.9484 13.2382 28.8883C12.6373 28.7081 12.0363 28.5879 11.4354 28.4677C11.2551 28.4076 11.2551 28.3475 11.3152 28.2273C11.5556 27.2057 11.796 26.1841 12.0964 25.2226C12.0964 25.1625 12.1565 25.1024 12.1565 24.9822C10.7744 24.6217 9.3922 24.2611 7.94995 23.9006C8.07014 23.6602 8.13023 23.4799 8.25042 23.2395C8.4908 22.6987 8.73117 22.1578 8.91145 21.6771C8.97155 21.4968 9.03164 21.4968 9.21192 21.4968C9.63258 21.617 10.1133 21.7372 10.534 21.7973C11.0147 21.9175 11.3753 21.6771 11.4354 21.2564C12.2166 18.1916 12.9978 15.1268 13.719 12.002C13.8392 11.5212 13.5387 10.9804 12.9978 10.8001C12.457 10.6198 11.9161 10.4996 11.4354 10.3794C11.3152 10.3794 11.2551 10.3193 11.3152 10.1991C11.4955 9.53812 11.6758 8.81699 11.8561 8.15596C11.6157 8.33624 11.6157 8.33624 11.6758 8.27614ZM14.7406 23.1193C14.8007 23.1193 14.8607 23.1794 14.8607 23.1794C15.8223 23.4198 16.8438 23.7203 17.8654 23.7804C18.5866 23.8405 19.2476 23.8405 19.9086 23.6001C21.0504 23.2395 21.5312 21.7372 20.8701 20.7757C20.5697 20.2949 20.0889 19.9945 19.6082 19.694C18.5265 19.093 17.2645 18.8527 16.0626 18.6123C15.8823 18.5522 15.8823 18.6123 15.8223 18.7926C15.7021 19.3935 15.5218 19.9344 15.4016 20.5353C15.1612 21.3766 14.9809 22.2179 14.7406 23.1193ZM19.7884 16.9898C19.9086 16.9898 20.2091 16.9297 20.4495 16.8696C21.5913 16.6292 22.1922 15.3071 21.5913 14.2855C21.2908 13.7447 20.75 13.3841 20.2091 13.1438C19.3678 12.7832 18.5265 12.6029 17.6251 12.3625C17.4448 12.3024 17.3847 12.3625 17.3246 12.5428C17.0241 13.8048 16.7237 15.0067 16.3631 16.2686C16.303 16.3888 16.3631 16.4489 16.4833 16.509C16.7237 16.5691 16.9039 16.6292 17.1443 16.6893C18.0457 16.8095 18.8269 16.9898 19.7884 16.9898Z" fill="white"/>
</svg>
