<svg width="98" height="48" viewBox="0 0 98 48" fill="none" xmlns="http://www.w3.org/2000/svg">
<path d="M10.7838 33.8724L7 35.1688V40H91V26.2129C88.5729 25.365 89.7488 21.8772 87.2162 23.149C84.7891 24.4208 85.1028 31.3288 82.6757 33.8724C80.1431 36.4161 79.1542 28.9347 76.6216 28.5107C74.1945 28.0868 71.8677 33.3962 69.8108 31.5746C63.7568 26.2129 66.027 4 62.2432 4C56.1892 4 56.9459 29.2767 51.6487 33.1065C49.3481 34.7697 45.7514 28.8528 43.3243 29.2767C40.7917 29.7006 42.8299 34.8166 40.2973 36.9363C37.8702 39.0559 39.5405 29.2767 32.7297 30.8086C28.1892 28.5107 28.1892 18.5533 22.8919 19.3192C20.6216 20.0852 18.5082 30.1246 16.0811 29.2767C13.5485 28.4288 15.3243 32.3405 10.7838 33.8724Z" fill="url(#paint0_linear_577_4603)"/>
<g filter="url(#filter0_d_577_4603)">
<path d="M7 35.1688L10.7838 33.8724C15.3243 32.3405 13.5485 28.4288 16.0811 29.2767C18.5082 30.1246 20.6216 20.0852 22.8919 19.3192C28.1892 18.5533 28.1892 28.5107 32.7297 30.8086C39.5405 29.2767 37.8702 39.0559 40.2973 36.9363C42.8299 34.8166 40.7917 29.7006 43.3243 29.2767C45.7514 28.8528 49.3481 34.7697 51.6487 33.1065C56.9459 29.2767 56.1892 4 62.2432 4C66.027 4 63.7568 26.2129 69.8108 31.5746C71.8677 33.3962 74.1945 28.0868 76.6216 28.5107C79.1542 28.9347 80.1431 36.4161 82.6757 33.8724C85.1028 31.3288 84.7891 24.4208 87.2162 23.149C89.7488 21.8772 88.5729 25.365 91 26.2129" stroke="#E24949" stroke-width="1.54485"/>
</g>
<defs>
<filter id="filter0_d_577_4603" x="0.570232" y="0.13783" width="96.8639" height="47.1435" filterUnits="userSpaceOnUse" color-interpolation-filters="sRGB">
<feFlood flood-opacity="0" result="BackgroundImageFix"/>
<feColorMatrix in="SourceAlpha" type="matrix" values="0 0 0 0 0 0 0 0 0 0 0 0 0 0 0 0 0 0 127 0" result="hardAlpha"/>
<feOffset dy="3.08971"/>
<feGaussianBlur stdDeviation="3.08971"/>
<feComposite in2="hardAlpha" operator="out"/>
<feColorMatrix type="matrix" values="0 0 0 0 0 0 0 0 0 0 0 0 0 0 0 0 0 0 0.25 0"/>
<feBlend mode="normal" in2="BackgroundImageFix" result="effect1_dropShadow_577_4603"/>
<feBlend mode="normal" in="SourceGraphic" in2="effect1_dropShadow_577_4603" result="shape"/>
</filter>
<linearGradient id="paint0_linear_577_4603" x1="49" y1="4" x2="49" y2="40" gradientUnits="userSpaceOnUse">
<stop stop-color="#F9D2D2"/>
<stop offset="1" stop-color="#FDEDED" stop-opacity="0"/>
</linearGradient>
</defs>
</svg>
