<svg width="164" height="74" viewBox="0 0 164 74" fill="none" xmlns="http://www.w3.org/2000/svg">
<path d="M13.7568 57.1065L7 59.4111V68H157V43.4895C152.666 41.9822 154.766 35.7817 150.243 38.0427C145.909 40.3037 146.469 52.5845 142.135 57.1065C137.613 61.6285 135.847 48.3283 131.324 47.5746C126.99 46.821 122.835 56.2599 119.162 53.0214C108.351 43.4895 112.405 4 105.649 4C94.8378 4 96.1892 48.9363 86.7297 55.7448C82.6216 58.7017 76.199 48.1827 71.8649 48.9363C67.3423 49.69 70.982 58.785 66.4595 62.5533C62.1254 66.3217 65.1081 48.9363 52.9459 51.6597C44.8378 47.5746 44.8378 29.8725 35.3784 31.2342C31.3243 32.5959 27.5503 50.4437 23.2162 48.9363C18.6937 47.429 21.8649 54.3831 13.7568 57.1065Z" fill="url(#paint0_linear_88_5939)"/>
<g filter="url(#filter0_d_88_5939)">
<path d="M7 59.4111L13.7568 57.1065C21.8649 54.3831 18.6937 47.429 23.2162 48.9363C27.5503 50.4437 31.3243 32.5959 35.3784 31.2342C44.8378 29.8725 44.8378 47.5746 52.9459 51.6597C65.1081 48.9363 62.1254 66.3217 66.4595 62.5534C70.982 58.785 67.3423 49.69 71.8649 48.9363C76.199 48.1827 82.6216 58.7017 86.7297 55.7448C96.1892 48.9363 94.8378 4 105.649 4C112.405 4 108.351 43.4895 119.162 53.0214C122.835 56.2599 126.99 46.821 131.324 47.5746C135.847 48.3283 137.613 61.6285 142.135 57.1065C146.469 52.5845 145.909 40.3037 150.243 38.0427C154.766 35.7817 152.666 41.9822 157 43.4895" stroke="#E24949" stroke-width="1.54485"/>
</g>
<defs>
<filter id="filter0_d_88_5939" x="0.571224" y="0.13783" width="162.862" height="72.9956" filterUnits="userSpaceOnUse" color-interpolation-filters="sRGB">
<feFlood flood-opacity="0" result="BackgroundImageFix"/>
<feColorMatrix in="SourceAlpha" type="matrix" values="0 0 0 0 0 0 0 0 0 0 0 0 0 0 0 0 0 0 127 0" result="hardAlpha"/>
<feOffset dy="3.08971"/>
<feGaussianBlur stdDeviation="3.08971"/>
<feComposite in2="hardAlpha" operator="out"/>
<feColorMatrix type="matrix" values="0 0 0 0 0 0 0 0 0 0 0 0 0 0 0 0 0 0 0.25 0"/>
<feBlend mode="normal" in2="BackgroundImageFix" result="effect1_dropShadow_88_5939"/>
<feBlend mode="normal" in="SourceGraphic" in2="effect1_dropShadow_88_5939" result="shape"/>
</filter>
<linearGradient id="paint0_linear_88_5939" x1="82" y1="4" x2="82" y2="68" gradientUnits="userSpaceOnUse">
<stop stop-color="#F9D2D2"/>
<stop offset="1" stop-color="#FDEDED" stop-opacity="0"/>
</linearGradient>
</defs>
</svg>
