<svg width="40" height="40" viewBox="0 0 40 40" fill="none" xmlns="http://www.w3.org/2000/svg">
<rect width="40" height="40" rx="20" fill="#0000FF"/>
<path d="M18.7477 25.5141C22.5215 25.5854 26.2262 25.6546 30 25.7951C29.8618 26.355 29.7215 26.8436 29.6523 27.3343C29.4409 28.0346 29.2314 28.6657 29.0932 29.3661C29.022 29.7162 28.8817 29.7855 28.534 29.7855H10.5006C11.1309 27.3343 11.7592 25.0255 12.3875 22.5742C11.4095 22.9244 10.5697 23.2746 9.59167 23.694C9.87227 22.6455 10.1508 21.7354 10.5006 20.7541C10.5006 20.6156 10.71 20.5444 10.8503 20.5444C11.4806 20.2655 12.178 20.0538 12.8063 19.7728C13.0158 19.7056 13.2272 19.4959 13.2272 19.2842L16.1593 8.36543C16.2304 7.94601 16.3687 7.80554 16.8587 7.80554H23.2189C22.4503 10.6742 21.7509 13.5468 20.9823 16.556C22.1006 16.0673 23.1498 15.6459 24.3373 15.2265C24.197 15.7864 23.9875 16.275 23.9184 16.7657C23.7781 17.8874 23.1498 18.5166 22.0315 18.7975C21.5435 18.936 21.0514 19.1457 20.5634 19.3574C20.3901 19.4611 20.2461 19.6052 20.1446 19.7768C19.6545 21.6662 19.1645 23.4863 18.7456 25.3757V25.5161L18.7477 25.5141Z" fill="white"/>
</svg>
